
      <svg data-logo="logo" xmlns="http://www.w3.org/2000/svg" viewBox="0 0 138 43">
        <g id="logogram" transform="translate(0, 1) rotate(0) "><path d="M13.1469 0.69989L23.4811 9.52876C24.0946 10.0529 24.4483 10.8221 24.4483 11.6322V18.2861L14.1141 9.45723C13.5006 8.93308 13.1469 8.16389 13.1469 7.35375V0.69989Z" fill="#000000"/><path d="M13.1469 40.6999L23.4811 31.871C24.0946 31.3469 24.4483 30.5777 24.4483 29.7675V23.1137L14.1141 31.9426C13.5006 32.4667 13.1469 33.2359 13.1469 34.046V40.6999Z" fill="#000000"/><path d="M0.818115 10.0102L11.0117 18.6704C11.5059 19.0903 12.1318 19.3206 12.7785 19.3206H20.9992L10.8306 10.6624C10.3361 10.2413 9.70929 10.0102 9.06158 10.0102H0.818115Z" fill="#000000"/><path d="M0.818115 31.3895L10.949 22.7343C11.4441 22.3114 12.0723 22.0792 12.7216 22.0792H21.0236L10.8301 30.7393C10.3358 31.1592 9.70997 31.3895 9.06329 31.3895H0.818115Z" fill="#000000"/><path d="M38.4893 0.69989L28.1552 9.52876C27.5417 10.0529 27.188 10.8221 27.188 11.6322V18.2861L37.5222 9.45723C38.1357 8.93308 38.4893 8.16389 38.4893 7.35375V0.69989Z" fill="#000000"/><path d="M38.4893 40.6999L28.1552 31.871C27.5417 31.3469 27.188 30.5777 27.188 29.7675V23.1137L37.5222 31.9426C38.1357 32.4667 38.4893 33.2359 38.4893 34.046V40.6999Z" fill="#000000"/><path d="M50.8181 10.0102L40.6245 18.6704C40.1303 19.0903 39.5045 19.3206 38.8578 19.3206H30.6371L40.8056 10.6624C41.3002 10.2413 41.9269 10.0102 42.5747 10.0102H50.8181Z" fill="#000000"/><path d="M50.8181 31.3895L40.6872 22.7343C40.1921 22.3114 39.564 22.0792 38.9147 22.0792H30.6126L40.8062 30.7393C41.3004 31.1592 41.9263 31.3895 42.5729 31.3895H50.8181Z" fill="#000000"/></g>
        <g id="logotype" transform="translate(57, 8.5)"><path fill="#111111" d="M15.25 22.40L15.25 22.40Q12.68 22.40 10.85 21.23Q9.03 20.05 8.04 17.96Q7.05 15.88 7.05 13.15L7.05 13.15Q7.05 10.47 8.05 8.38Q9.05 6.27 10.94 5.06Q12.82 3.85 15.47 3.85L15.47 3.85Q17.77 3.85 19.36 4.61Q20.95 5.38 21.90 6.77Q22.85 8.17 23.23 10.07L23.23 10.07L19.30 10.25Q19.02 8.77 18.14 7.91Q17.25 7.05 15.50 7.05L15.50 7.05Q13.98 7.05 12.96 7.85Q11.95 8.65 11.46 10.02Q10.98 11.40 10.98 13.15L10.98 13.15Q10.98 14.93 11.46 16.29Q11.95 17.65 12.96 18.43Q13.98 19.20 15.58 19.20L15.58 19.20Q16.75 19.20 17.61 18.73Q18.48 18.25 18.96 17.43Q19.45 16.60 19.55 15.55L19.55 15.55L15.50 15.55L15.50 12.78L23.28 12.78L23.28 22L20.93 22L20.73 18.20L21.18 18.40Q20.93 19.57 20.08 20.48Q19.23 21.38 17.99 21.89Q16.75 22.40 15.25 22.40ZM31.63 22.30L31.63 22.30Q29.57 22.30 28.06 21.44Q26.55 20.57 25.71 19Q24.88 17.43 24.88 15.30L24.88 15.30Q24.88 13.17 25.71 11.61Q26.55 10.05 28.05 9.17Q29.55 8.30 31.60 8.30L31.60 8.30Q33.60 8.30 35.08 9.17Q36.55 10.05 37.36 11.67Q38.17 13.30 38.17 15.55L38.17 15.55L38.17 16.30L28.75 16.30Q28.82 17.90 29.61 18.68Q30.40 19.45 31.70 19.45L31.70 19.45Q32.65 19.45 33.29 19.05Q33.92 18.65 34.20 17.82L34.20 17.82L37.98 18.05Q37.45 20.05 35.75 21.18Q34.05 22.30 31.63 22.30ZM28.75 14L28.75 14L34.33 14Q34.25 12.53 33.51 11.80Q32.77 11.07 31.60 11.07L31.60 11.07Q30.43 11.07 29.66 11.84Q28.90 12.60 28.75 14ZM43.48 22L39.73 22L39.73 8.60L43.10 8.60L43.25 12.53L42.78 12.40Q42.98 10.90 43.59 10Q44.20 9.10 45.13 8.70Q46.05 8.30 47.15 8.30L47.15 8.30Q48.60 8.30 49.61 8.92Q50.63 9.55 51.16 10.69Q51.70 11.82 51.70 13.38L51.70 13.38L51.70 22L47.95 22L47.95 14.63Q47.95 13.55 47.78 12.80Q47.60 12.05 47.15 11.66Q46.70 11.27 45.90 11.27L45.90 11.27Q44.73 11.27 44.10 12.14Q43.48 13 43.48 14.63L43.48 14.63L43.48 22ZM57.60 22L53.85 22L53.85 8.60L57.23 8.60L57.38 12.53L56.90 12.40Q57.10 10.90 57.71 10Q58.33 9.10 59.25 8.70Q60.18 8.30 61.28 8.30L61.28 8.30Q62.73 8.30 63.74 8.92Q64.75 9.55 65.29 10.69Q65.83 11.82 65.83 13.38L65.83 13.38L65.83 22L62.08 22L62.08 14.63Q62.08 13.55 61.90 12.80Q61.73 12.05 61.28 11.66Q60.83 11.27 60.03 11.27L60.03 11.27Q58.85 11.27 58.23 12.14Q57.60 13 57.60 14.63L57.60 14.63L57.60 22ZM71.23 25.75L68.68 25.75L68.68 22.95L70.45 22.95Q71.10 22.95 71.41 22.76Q71.73 22.57 71.90 22.10L71.90 22.10L72.18 21.32L71.15 21.32L66.45 8.60L70.28 8.60L73.35 17.82L76.23 8.60L80.05 8.60L74.90 23.27Q74.45 24.60 73.60 25.18Q72.75 25.75 71.23 25.75L71.23 25.75Z"/></g>
        
      </svg>
    